<svg viewBox="0 0 200 200" xmlns="http://www.w3.org/2000/svg">
  <defs>
    <linearGradient id="aiGradient" x1="0%" y1="0%" x2="100%" y2="100%">
      <stop offset="0%" style="stop-color:#3b82f6;stop-opacity:1" />
      <stop offset="50%" style="stop-color:#10b981;stop-opacity:1" />
      <stop offset="100%" style="stop-color:#06b6d4;stop-opacity:1" />
    </linearGradient>
    <linearGradient id="bgGradient" x1="0%" y1="0%" x2="100%" y2="100%">
      <stop offset="0%" style="stop-color:#0f172a;stop-opacity:1" />
      <stop offset="100%" style="stop-color:#1e293b;stop-opacity:1" />
    </linearGradient>
  </defs>
  <rect width="200" height="200" fill="url(#bgGradient)" rx="40"/>
  <circle cx="100" cy="40" r="8" fill="url(#aiGradient)" opacity="0.9"/>
  <circle cx="160" cy="60" r="8" fill="url(#aiGradient)" opacity="0.85"/>
  <circle cx="160" cy="140" r="8" fill="url(#aiGradient)" opacity="0.85"/>
  <circle cx="100" cy="160" r="8" fill="url(#aiGradient)" opacity="0.9"/>
  <circle cx="40" cy="140" r="8" fill="url(#aiGradient)" opacity="0.85"/>
  <circle cx="40" cy="60" r="8" fill="url(#aiGradient)" opacity="0.85"/>
  <g opacity="0.95">
    <path d="M 70 100 Q 100 70 130 100" stroke="url(#aiGradient)" stroke-width="3" fill="none" stroke-linecap="round"/>
    <path d="M 130 100 Q 100 130 70 100" stroke="url(#aiGradient)" stroke-width="3" fill="none" stroke-linecap="round"/>
    <circle cx="100" cy="100" r="5" fill="url(#aiGradient)"/>
  </g>
  <line x1="100" y1="40" x2="70" y2="100" stroke="url(#aiGradient)" stroke-width="1.5" opacity="0.5" stroke-dasharray="2,3"/>
  <line x1="160" y1="60" x2="130" y2="100" stroke="url(#aiGradient)" stroke-width="1.5" opacity="0.5" stroke-dasharray="2,3"/>
  <line x1="160" y1="140" x2="130" y2="100" stroke="url(#aiGradient)" stroke-width="1.5" opacity="0.5" stroke-dasharray="2,3"/>
  <line x1="100" y1="160" x2="70" y2="100" stroke="url(#aiGradient)" stroke-width="1.5" opacity="0.5" stroke-dasharray="2,3"/>
  <line x1="40" y1="140" x2="70" y2="100" stroke="url(#aiGradient)" stroke-width="1.5" opacity="0.5" stroke-dasharray="2,3"/>
  <line x1="40" y1="60" x2="70" y2="100" stroke="url(#aiGradient)" stroke-width="1.5" opacity="0.5" stroke-dasharray="2,3"/>
</svg>
